<mxfile host="app.diagrams.net" modified="2020-10-05T07:12:46.098Z" agent="5.0 (Windows NT 10.0; Win64; x64) AppleWebKit/537.36 (KHTML, like Gecko) Chrome/85.0.4183.83 Safari/537.36" etag="KJLPIPcn6Q2wowurHH5a" version="13.7.7" type="github">
  <diagram id="4Zgy66-phFbGBRuDP2bV" name="Seite-1">
    <mxGraphModel dx="1185" dy="770" grid="1" gridSize="10" guides="1" tooltips="1" connect="1" arrows="1" fold="1" page="1" pageScale="1" pageWidth="827" pageHeight="1169" math="1" shadow="0">
      <root>
        <mxCell id="0" />
        <mxCell id="1" parent="0" />
        <mxCell id="HDMQ9oWZRbvWbr3XCpym-1" value="$$H_1$$" style="whiteSpace=wrap;html=1;aspect=fixed;strokeWidth=2;" parent="1" vertex="1">
          <mxGeometry x="80" y="40" width="40" height="40" as="geometry" />
        </mxCell>
        <mxCell id="HDMQ9oWZRbvWbr3XCpym-2" value="$$H_2$$" style="whiteSpace=wrap;html=1;aspect=fixed;strokeWidth=2;" parent="1" vertex="1">
          <mxGeometry x="160" y="40" width="40" height="40" as="geometry" />
        </mxCell>
        <mxCell id="HDMQ9oWZRbvWbr3XCpym-3" value="$$H_3$$" style="whiteSpace=wrap;html=1;aspect=fixed;strokeWidth=2;" parent="1" vertex="1">
          <mxGeometry x="240" y="40" width="40" height="40" as="geometry" />
        </mxCell>
        <mxCell id="HDMQ9oWZRbvWbr3XCpym-5" value="$$H_4$$" style="whiteSpace=wrap;html=1;aspect=fixed;strokeWidth=2;" parent="1" vertex="1">
          <mxGeometry x="320" y="40" width="40" height="40" as="geometry" />
        </mxCell>
        <mxCell id="HDMQ9oWZRbvWbr3XCpym-6" value="$$H_5$$" style="whiteSpace=wrap;html=1;aspect=fixed;strokeWidth=2;" parent="1" vertex="1">
          <mxGeometry x="400" y="40" width="40" height="40" as="geometry" />
        </mxCell>
        <mxCell id="HDMQ9oWZRbvWbr3XCpym-7" value="$$H_6$$" style="whiteSpace=wrap;html=1;aspect=fixed;strokeWidth=2;" parent="1" vertex="1">
          <mxGeometry x="480" y="40" width="40" height="40" as="geometry" />
        </mxCell>
        <mxCell id="HDMQ9oWZRbvWbr3XCpym-10" value="" style="endArrow=none;html=1;strokeWidth=1;entryX=0.5;entryY=1;entryDx=0;entryDy=0;exitX=0.5;exitY=0;exitDx=0;exitDy=0;" parent="1" source="HDMQ9oWZRbvWbr3XCpym-28" target="HDMQ9oWZRbvWbr3XCpym-1" edge="1">
          <mxGeometry width="50" height="50" relative="1" as="geometry">
            <mxPoint x="100" y="120" as="sourcePoint" />
            <mxPoint x="100" y="80" as="targetPoint" />
          </mxGeometry>
        </mxCell>
        <mxCell id="HDMQ9oWZRbvWbr3XCpym-11" value="" style="endArrow=none;html=1;strokeWidth=1;entryX=0.5;entryY=1;entryDx=0;entryDy=0;exitX=0.5;exitY=0;exitDx=0;exitDy=0;" parent="1" source="HDMQ9oWZRbvWbr3XCpym-29" edge="1">
          <mxGeometry width="50" height="50" relative="1" as="geometry">
            <mxPoint x="180" y="120" as="sourcePoint" />
            <mxPoint x="179.5" y="80" as="targetPoint" />
          </mxGeometry>
        </mxCell>
        <mxCell id="HDMQ9oWZRbvWbr3XCpym-13" value="" style="endArrow=none;html=1;strokeWidth=1;entryX=0.5;entryY=1;entryDx=0;entryDy=0;exitX=0.5;exitY=0;exitDx=0;exitDy=0;" parent="1" source="HDMQ9oWZRbvWbr3XCpym-30" edge="1">
          <mxGeometry width="50" height="50" relative="1" as="geometry">
            <mxPoint x="260" y="120" as="sourcePoint" />
            <mxPoint x="259.5" y="80" as="targetPoint" />
          </mxGeometry>
        </mxCell>
        <mxCell id="HDMQ9oWZRbvWbr3XCpym-14" value="" style="endArrow=none;html=1;strokeWidth=1;entryX=0.5;entryY=1;entryDx=0;entryDy=0;exitX=0.5;exitY=0;exitDx=0;exitDy=0;" parent="1" source="HDMQ9oWZRbvWbr3XCpym-33" edge="1">
          <mxGeometry width="50" height="50" relative="1" as="geometry">
            <mxPoint x="340.5" y="120" as="sourcePoint" />
            <mxPoint x="340" y="80" as="targetPoint" />
          </mxGeometry>
        </mxCell>
        <mxCell id="HDMQ9oWZRbvWbr3XCpym-15" value="" style="endArrow=none;html=1;strokeWidth=1;entryX=0.5;entryY=1;entryDx=0;entryDy=0;exitX=0.5;exitY=0;exitDx=0;exitDy=0;" parent="1" source="HDMQ9oWZRbvWbr3XCpym-36" edge="1">
          <mxGeometry width="50" height="50" relative="1" as="geometry">
            <mxPoint x="420" y="120" as="sourcePoint" />
            <mxPoint x="419.5" y="80" as="targetPoint" />
          </mxGeometry>
        </mxCell>
        <mxCell id="HDMQ9oWZRbvWbr3XCpym-16" value="" style="endArrow=none;html=1;strokeWidth=1;entryX=0.5;entryY=1;entryDx=0;entryDy=0;exitX=0.5;exitY=0;exitDx=0;exitDy=0;" parent="1" source="HDMQ9oWZRbvWbr3XCpym-37" edge="1">
          <mxGeometry width="50" height="50" relative="1" as="geometry">
            <mxPoint x="500" y="120" as="sourcePoint" />
            <mxPoint x="499.5" y="80" as="targetPoint" />
          </mxGeometry>
        </mxCell>
        <mxCell id="HDMQ9oWZRbvWbr3XCpym-21" value="&lt;p class=&quot;p1&quot; style=&quot;margin: 0px ; font-stretch: normal ; line-height: normal ; font-size: 11px&quot;&gt;&lt;span class=&quot;s1&quot; style=&quot;background-color: rgb(255 , 255 , 255)&quot;&gt;&lt;font face=&quot;Courier New&quot;&gt;b8:69:f4:c5:3c:97&lt;/font&gt;&lt;/span&gt;&lt;/p&gt;" style="text;html=1;strokeColor=none;fillColor=none;align=center;verticalAlign=middle;whiteSpace=wrap;rounded=0;rotation=-90;" parent="1" vertex="1">
          <mxGeometry x="70" y="130" width="40" height="20" as="geometry" />
        </mxCell>
        <mxCell id="HDMQ9oWZRbvWbr3XCpym-22" value="&lt;p class=&quot;p1&quot; style=&quot;margin: 0px ; font-stretch: normal ; line-height: normal ; font-size: 11px&quot;&gt;&lt;span class=&quot;s1&quot; style=&quot;background-color: rgb(255 , 255 , 255)&quot;&gt;&lt;font face=&quot;Courier New&quot;&gt;c8:2a:14:55:aa:e3&lt;/font&gt;&lt;/span&gt;&lt;/p&gt;" style="text;html=1;strokeColor=none;fillColor=none;align=center;verticalAlign=middle;whiteSpace=wrap;rounded=0;rotation=-90;" parent="1" vertex="1">
          <mxGeometry x="150" y="130" width="40" height="20" as="geometry" />
        </mxCell>
        <mxCell id="HDMQ9oWZRbvWbr3XCpym-23" value="&lt;p class=&quot;p1&quot; style=&quot;margin: 0px ; font-stretch: normal ; line-height: normal ; font-size: 11px&quot;&gt;&lt;span class=&quot;s1&quot; style=&quot;background-color: rgb(255 , 255 , 255)&quot;&gt;&lt;font face=&quot;Courier New&quot;&gt;d8:9e:f3:7c:dd:f5&lt;/font&gt;&lt;/span&gt;&lt;/p&gt;" style="text;html=1;strokeColor=none;fillColor=none;align=center;verticalAlign=middle;whiteSpace=wrap;rounded=0;rotation=-90;" parent="1" vertex="1">
          <mxGeometry x="230" y="130" width="40" height="20" as="geometry" />
        </mxCell>
        <mxCell id="HDMQ9oWZRbvWbr3XCpym-24" value="&lt;p class=&quot;p1&quot; style=&quot;margin: 0px ; font-stretch: normal ; line-height: normal ; font-size: 11px&quot;&gt;&lt;span class=&quot;s1&quot; style=&quot;background-color: rgb(255 , 255 , 255)&quot;&gt;&lt;font face=&quot;Courier New&quot;&gt;10:40:f3:97:14:e4&lt;/font&gt;&lt;/span&gt;&lt;/p&gt;" style="text;html=1;strokeColor=none;fillColor=none;align=center;verticalAlign=middle;whiteSpace=wrap;rounded=0;rotation=-90;" parent="1" vertex="1">
          <mxGeometry x="310" y="130" width="40" height="20" as="geometry" />
        </mxCell>
        <mxCell id="HDMQ9oWZRbvWbr3XCpym-25" value="&lt;p class=&quot;p1&quot; style=&quot;margin: 0px ; font-stretch: normal ; line-height: normal ; font-size: 11px&quot;&gt;&lt;span class=&quot;s1&quot; style=&quot;background-color: rgb(255 , 255 , 255)&quot;&gt;&lt;font face=&quot;Courier New&quot;&gt;3c:2a:f4:eb:f0:fc&lt;/font&gt;&lt;/span&gt;&lt;/p&gt;" style="text;html=1;strokeColor=none;fillColor=none;align=center;verticalAlign=middle;whiteSpace=wrap;rounded=0;rotation=-90;" parent="1" vertex="1">
          <mxGeometry x="390" y="130" width="40" height="20" as="geometry" />
        </mxCell>
        <mxCell id="HDMQ9oWZRbvWbr3XCpym-26" value="&lt;p class=&quot;p1&quot; style=&quot;margin: 0px ; font-stretch: normal ; line-height: normal ; font-size: 11px&quot;&gt;&lt;span style=&quot;font-family: &amp;#34;courier new&amp;#34; ; background-color: rgb(255 , 255 , 255)&quot;&gt;5c:f3:70:5a:a8:6e&lt;/span&gt;&lt;/p&gt;" style="text;html=1;strokeColor=none;fillColor=none;align=center;verticalAlign=middle;whiteSpace=wrap;rounded=0;rotation=-90;" parent="1" vertex="1">
          <mxGeometry x="470" y="130" width="40" height="20" as="geometry" />
        </mxCell>
        <mxCell id="HDMQ9oWZRbvWbr3XCpym-40" value="&lt;font style=&quot;font-size: 10px&quot;&gt;&lt;font style=&quot;font-size: 10px&quot;&gt;Port MAC&lt;br&gt;---- ----------------&lt;br&gt;1&amp;nbsp; &amp;nbsp;&amp;nbsp;&lt;/font&gt;&lt;span style=&quot;text-align: center&quot;&gt;b8:69:f4:c5:3c:97&lt;/span&gt;&lt;font style=&quot;font-size: 10px&quot;&gt;&lt;br&gt;2&amp;nbsp; &amp;nbsp;&amp;nbsp;&lt;/font&gt;&lt;span style=&quot;text-align: center&quot;&gt;c8:2a:14:55:aa:e3&lt;/span&gt;&lt;font style=&quot;font-size: 10px&quot;&gt;&lt;br&gt;3&amp;nbsp; &amp;nbsp;&amp;nbsp;&lt;/font&gt;&lt;span style=&quot;text-align: center&quot;&gt;d8:9e:f3:7c:dd:f5&lt;/span&gt;&lt;font style=&quot;font-size: 10px&quot;&gt;&lt;br&gt;4&amp;nbsp; &amp;nbsp;&amp;nbsp;&lt;/font&gt;&lt;span style=&quot;text-align: center&quot;&gt;10:40:f3:97:14:e4&lt;/span&gt;&lt;font style=&quot;font-size: 10px&quot;&gt;&lt;br&gt;5&amp;nbsp; &amp;nbsp;&amp;nbsp;&lt;/font&gt;&lt;span style=&quot;text-align: center&quot;&gt;3c:2a:f4:eb:f0:fc&lt;/span&gt;&lt;font style=&quot;font-size: 10px&quot;&gt;&lt;br&gt;6&amp;nbsp; &amp;nbsp;&amp;nbsp;&lt;/font&gt;&lt;span style=&quot;text-align: center&quot;&gt;5c:f3:70:5a:a8:6e&lt;br&gt;&lt;/span&gt;&lt;font style=&quot;font-size: 10px&quot;&gt;0&amp;nbsp; &amp;nbsp;&amp;nbsp;&lt;/font&gt;&lt;span style=&quot;text-align: center&quot;&gt;d4:ca:6d:f8:6e:7e&lt;br&gt;&lt;/span&gt;&lt;/font&gt;" style="text;html=1;strokeColor=none;fillColor=none;align=left;verticalAlign=middle;whiteSpace=wrap;rounded=0;fontFamily=Courier New;fontSize=9;labelBackgroundColor=#ffffff;" parent="1" vertex="1">
          <mxGeometry x="70" y="310" width="270" height="20" as="geometry" />
        </mxCell>
        <mxCell id="HDMQ9oWZRbvWbr3XCpym-51" value="CAM&lt;br&gt;Table" style="text;html=1;strokeColor=none;fillColor=none;align=right;verticalAlign=middle;whiteSpace=wrap;rounded=0;fontFamily=Verdana;fontSize=12;" parent="1" vertex="1">
          <mxGeometry x="28" y="268" width="40" height="20" as="geometry" />
        </mxCell>
        <mxCell id="HDMQ9oWZRbvWbr3XCpym-27" value="" style="rounded=0;whiteSpace=wrap;html=1;strokeWidth=2;" parent="1" vertex="1">
          <mxGeometry x="70" y="220" width="540" height="30" as="geometry" />
        </mxCell>
        <mxCell id="HDMQ9oWZRbvWbr3XCpym-28" value="&lt;font style=&quot;font-size: 9px&quot; face=&quot;Verdana&quot;&gt;1&lt;/font&gt;" style="whiteSpace=wrap;html=1;aspect=fixed;strokeWidth=2;" parent="1" vertex="1">
          <mxGeometry x="95" y="230" width="10" height="10" as="geometry" />
        </mxCell>
        <mxCell id="HDMQ9oWZRbvWbr3XCpym-29" value="2" style="whiteSpace=wrap;html=1;aspect=fixed;strokeWidth=2;fontFamily=Verdana;fontSize=9;" parent="1" vertex="1">
          <mxGeometry x="175" y="230" width="10" height="10" as="geometry" />
        </mxCell>
        <mxCell id="HDMQ9oWZRbvWbr3XCpym-30" value="3" style="whiteSpace=wrap;html=1;aspect=fixed;strokeWidth=2;fontFamily=Verdana;fontSize=9;" parent="1" vertex="1">
          <mxGeometry x="255" y="230" width="10" height="10" as="geometry" />
        </mxCell>
        <mxCell id="HDMQ9oWZRbvWbr3XCpym-33" value="4" style="whiteSpace=wrap;html=1;aspect=fixed;strokeWidth=2;fontFamily=Verdana;fontSize=9;" parent="1" vertex="1">
          <mxGeometry x="335" y="230" width="10" height="10" as="geometry" />
        </mxCell>
        <mxCell id="HDMQ9oWZRbvWbr3XCpym-36" value="5" style="whiteSpace=wrap;html=1;aspect=fixed;strokeWidth=2;fontFamily=Verdana;fontSize=9;" parent="1" vertex="1">
          <mxGeometry x="415" y="230" width="10" height="10" as="geometry" />
        </mxCell>
        <mxCell id="HDMQ9oWZRbvWbr3XCpym-37" value="6" style="whiteSpace=wrap;html=1;aspect=fixed;strokeWidth=2;fontFamily=Verdana;fontSize=9;" parent="1" vertex="1">
          <mxGeometry x="495" y="230" width="10" height="10" as="geometry" />
        </mxCell>
        <mxCell id="HDMQ9oWZRbvWbr3XCpym-38" value="&lt;font face=&quot;Verdana&quot;&gt;L2&lt;br&gt;&lt;div style=&quot;&quot;&gt;&lt;span&gt;Switch&lt;/span&gt;&lt;/div&gt;&lt;/font&gt;" style="text;html=1;strokeColor=none;fillColor=none;align=right;verticalAlign=middle;whiteSpace=wrap;rounded=0;" parent="1" vertex="1">
          <mxGeometry x="28" y="225" width="40" height="20" as="geometry" />
        </mxCell>
        <mxCell id="HDMQ9oWZRbvWbr3XCpym-53" value="0" style="whiteSpace=wrap;html=1;aspect=fixed;strokeWidth=2;fontFamily=Verdana;fontSize=9;" parent="1" vertex="1">
          <mxGeometry x="570" y="230" width="10" height="10" as="geometry" />
        </mxCell>
        <mxCell id="HDMQ9oWZRbvWbr3XCpym-54" value="$$GW_1$$" style="whiteSpace=wrap;html=1;aspect=fixed;strokeWidth=2;" parent="1" vertex="1">
          <mxGeometry x="555" y="390" width="40" height="40" as="geometry" />
        </mxCell>
        <mxCell id="HDMQ9oWZRbvWbr3XCpym-55" value="" style="endArrow=none;html=1;strokeWidth=1;entryX=0.5;entryY=1;entryDx=0;entryDy=0;exitX=0.5;exitY=0;exitDx=0;exitDy=0;" parent="1" edge="1">
          <mxGeometry width="50" height="50" relative="1" as="geometry">
            <mxPoint x="575" y="390" as="sourcePoint" />
            <mxPoint x="574.5" y="240" as="targetPoint" />
          </mxGeometry>
        </mxCell>
        <mxCell id="HDMQ9oWZRbvWbr3XCpym-56" value="&lt;p class=&quot;p1&quot; style=&quot;font-family: &amp;#34;helvetica&amp;#34; ; margin: 0px ; font-stretch: normal ; line-height: normal ; font-size: 11px&quot;&gt;&lt;span class=&quot;s1&quot; style=&quot;background-color: rgb(255 , 255 , 255)&quot;&gt;&lt;font face=&quot;Courier New&quot;&gt;d4:ca:6d:f8:6e:7e&lt;/font&gt;&lt;/span&gt;&lt;/p&gt;&lt;div&gt;&lt;span class=&quot;s1&quot; style=&quot;background-color: rgb(255 , 255 , 255)&quot;&gt;&lt;font face=&quot;Courier New&quot;&gt;&lt;br&gt;&lt;/font&gt;&lt;/span&gt;&lt;/div&gt;" style="text;html=1;align=center;verticalAlign=middle;resizable=0;points=[];autosize=1;fontSize=12;fontFamily=Verdana;rotation=-90;" parent="1" vertex="1">
          <mxGeometry x="505" y="310" width="130" height="30" as="geometry" />
        </mxCell>
      </root>
    </mxGraphModel>
  </diagram>
</mxfile>
